<svg id="svg" version="1.1" xmlns="http://www.w3.org/2000/svg" xmlns:xlink="http://www.w3.org/1999/xlink" width="400" height="400" viewBox="0, 0, 400,400"><g id="svgg"><path id="path0" d="M75.201 102.900 C 75.203 104.241,83.805 136.740,86.054 143.900 L 86.462 145.200 112.331 145.147 C 126.559 145.118,143.764 144.983,150.564 144.847 L 162.929 144.600 165.313 140.200 C 173.498 125.094,184.883 112.237,196.302 105.201 C 201.714 101.867,205.505 102.064,135.300 102.030 L 75.200 102.000 75.201 102.900 M251.800 102.276 C 226.215 103.609,202.420 113.821,188.706 129.355 C 178.385 141.046,174.180 150.157,166.346 177.800 C 163.915 186.380,159.526 201.865,156.594 212.212 C 148.535 240.644,148.566 240.493,150.850 240.950 C 151.538 241.088,156.493 241.200,161.863 241.200 C 170.247 241.200,171.658 241.286,171.859 241.811 C 172.120 242.489,172.058 243.595,169.211 289.200 C 166.181 337.743,165.196 352.828,164.933 354.700 C 164.605 357.038,165.294 356.892,166.821 354.300 C 171.133 346.985,223.600 240.123,223.600 238.658 C 223.600 238.110,215.815 237.604,207.324 237.601 C 202.913 237.600,202.965 237.663,203.952 233.510 C 205.874 225.425,221.507 170.205,222.986 166.275 C 225.478 159.655,228.353 155.877,234.116 151.650 C 241.978 145.883,244.511 145.575,286.239 145.321 C 304.080 145.212,318.893 144.990,319.155 144.828 C 319.620 144.540,322.556 134.368,327.764 115.000 C 331.132 102.476,331.115 102.577,329.934 102.261 C 329.019 102.016,256.525 102.030,251.800 102.276 " stroke="none" fill="#ffffff" fill-rule="evenodd"></path><path id="path1" d="M183.600 0.438 C 60.018 11.111,-24.003 128.513,5.855 248.800 C 33.798 361.373,152.759 426.638,263.200 389.985 C 362.519 357.024,419.461 253.187,394.145 151.200 C 370.683 56.679,280.459 -7.927,183.600 0.438 M197.167 102.330 C 199.708 102.718,199.566 103.191,196.302 105.201 C 184.883 112.237,173.498 125.094,165.313 140.200 L 162.929 144.600 150.564 144.847 C 143.764 144.983,126.559 145.118,112.331 145.147 L 86.462 145.200 86.054 143.900 C 83.805 136.740,75.203 104.241,75.201 102.900 L 75.200 102.000 135.300 102.030 C 168.355 102.046,196.195 102.181,197.167 102.330 M329.934 102.261 C 331.115 102.577,331.132 102.476,327.764 115.000 C 322.556 134.368,319.620 144.540,319.155 144.828 C 318.893 144.990,304.080 145.212,286.239 145.321 C 244.511 145.575,241.978 145.883,234.116 151.650 C 228.353 155.877,225.478 159.655,222.986 166.275 C 221.507 170.205,205.874 225.425,203.952 233.510 C 202.965 237.663,202.913 237.600,207.324 237.601 C 215.815 237.604,223.600 238.110,223.600 238.658 C 223.600 240.123,171.133 346.985,166.821 354.300 C 165.294 356.892,164.605 357.038,164.933 354.700 C 165.196 352.828,166.181 337.743,169.211 289.200 C 172.058 243.595,172.120 242.489,171.859 241.811 C 171.658 241.286,170.247 241.200,161.863 241.200 C 156.493 241.200,151.538 241.088,150.850 240.950 C 148.566 240.493,148.535 240.644,156.594 212.212 C 159.526 201.865,163.915 186.380,166.346 177.800 C 174.180 150.157,178.385 141.046,188.706 129.355 C 202.420 113.821,226.215 103.609,251.800 102.276 C 256.525 102.030,329.019 102.016,329.934 102.261 " stroke="none" fill="#1975d2" fill-rule="evenodd"></path></g></svg>