<svg class="animated" id="freepik_stories-startled"
  xmlns="http://www.w3.org/2000/svg" viewBox="0 0 500 500" version="1.1"
  xmlns:xlink="http://www.w3.org/1999/xlink"
  xmlns:svgjs="http://svgjs.com/svgjs">
  <style>svg#freepik_stories-startled:not(.animated) .animable {opacity: 0;}svg#freepik_stories-startled.animated #freepik--Floor--inject-2 {animation: 1.5s Infinite  linear floating;animation-delay: 0s;}svg#freepik_stories-startled.animated #freepik--Character--inject-2 {animation: 1s 1 forwards cubic-bezier(.36,-0.01,.5,1.38) lightSpeedRight;animation-delay: 0s;}svg#freepik_stories-startled.animated #freepik--Bu--inject-2 {animation: 1s 1 forwards cubic-bezier(.36,-0.01,.5,1.38) lightSpeedRight;animation-delay: 0.5s;opacity: 0}svg#freepik_stories-startled.animated #freepik--character-2--inject-2 {animation: 1s 1 forwards cubic-bezier(.36,-0.01,.5,1.38) lightSpeedRight,1.5s Infinite  linear wind;animation-delay: 0s,1s;}svg#freepik_stories-startled.animated #freepik--character-1--inject-2 {animation: 1s 1 forwards cubic-bezier(.36,-0.01,.5,1.38) fadeIn;animation-delay: 0s;}            @keyframes floating {                0% {                    opacity: 1;                    transform: translateY(0px);                }                50% {                    transform: translateY(-10px);                }                100% {                    opacity: 1;                    transform: translateY(0px);                }            }                    @keyframes lightSpeedRight {              from {                transform: translate3d(50%, 0, 0) skewX(-20deg);                opacity: 0;              }              60% {                transform: skewX(10deg);                opacity: 1;              }              80% {                transform: skewX(-2deg);              }              to {                opacity: 1;                transform: translate3d(0, 0, 0);              }            }                    @keyframes wind {                0% {                    transform: rotate( 0deg );                }                25% {                    transform: rotate( 1deg );                }                75% {                    transform: rotate( -1deg );                }            }                    @keyframes fadeIn {                0% {                    opacity: 0;                }                100% {                    opacity: 1;                }            }        </style>
  <g id="freepik--Floor--inject-2" class="animable" style="transform-origin: 249.14px 354.36px;">
    <ellipse id="freepik--floor--inject-2" cx="249.14" cy="354.36" rx="220.2" ry="124.99" style="fill: rgb(245, 245, 245); transform-origin: 249.14px 354.36px;" class="animable"></ellipse>
  </g>
  <g id="freepik--Shadows--inject-2" class="animable" style="transform-origin: 251.334px 392.06px;">
    <path id="freepik--Shadow--inject-2" d="M405.29,410.69c11.42,6.59,11.42,17.27,0,23.86s-29.92,6.59-41.33,0-11.41-17.27,0-23.86S393.88,404.1,405.29,410.69Z" style="fill: rgb(224, 224, 224); transform-origin: 384.629px 422.62px;" class="animable"></path>
    <path id="freepik--shadow--inject-2" d="M168,369c18.11,10.46,18.11,27.42,0,37.87s-47.49,10.46-65.6,0-18.12-27.41,0-37.87S149.91,358.58,168,369Z" style="fill: rgb(224, 224, 224); transform-origin: 135.198px 387.941px;" class="animable"></path>
    <path id="freepik--shadow--inject-2" d="M199.48,395.23l104-60.06a5.74,5.74,0,0,1,5.17,0l87.85,50.72c1.43.83,1.43,2.16,0,3l-104,60.06a5.76,5.76,0,0,1-5.18,0l-7.15-4.14-47.76-27.57-32.93-19C198.05,397.39,198.05,396.06,199.48,395.23Z" style="fill: rgb(224, 224, 224); transform-origin: 297.99px 392.06px;" class="animable"></path>
  </g>
  <g id="freepik--character-2--inject-2" class="animable" style="transform-origin: 343.346px 203.982px;">
    <g id="freepik--Character--inject-2" class="animable" style="transform-origin: 371.974px 203.982px;">
      <path d="M398.65,359.92a3.09,3.09,0,0,0,3.09,2c1.9.1,7.76.09,12-3.88,5.42-5.07,5.64-7.49,6.51-11,1.1-4.44,0-5.77,1.54-10.1a33.76,33.76,0,0,0,1.78-4.64,5.88,5.88,0,0,0-1-2.33Z" style="fill: #37474F; transform-origin: 411.11px 345.958px;" id="el5674bjdiczu" class="animable"></path>
      <path d="M406.14,327.29l-.94-1.24c-.8.59.17,3.85.09,7.92a28.7,28.7,0,0,1-2.23,9.81c-2.05,4.75-5.05,10-5.37,14.22s9.28,2.47,12.43.65a18.44,18.44,0,0,0,8.63-11.53c.83-3.15.79-6.41,1.31-8.83s2.7-5.83,2.48-8.25c-.13-1.33-1.74-3.64-3.26-5.52-1.39-1.73-3.14-3.88-3.72-3.4.1.24.34.95.34.95a9.08,9.08,0,0,1-4.41,4.64A7.94,7.94,0,0,1,406.14,327.29Z" style="fill: rgb(69, 90, 100); transform-origin: 410.119px 340.83px;" id="elkg6abyimay" class="animable"></path>
      <path d="M377.9,179.54l-23.72,55.7c1.46,7.7,5.69,25.53,6.91,31.75,1.31,6.62,4.5,10.22,10.74,17l15.58-17.4c0-8.09.27-20.57.75-33.73C389.14,206,382.32,190.39,377.9,179.54Z" style="fill: rgb(255, 168, 167); transform-origin: 371.218px 231.765px;" id="elkev1eb3wvg" class="animable"></path>
      <path d="M396.23,275.37c-3.34-4.7-6.14-6.29-8.82-8.74l-18.68,14c13.57,15.32,37.41,46.69,37.41,46.69,3.66,2.24,10.16-2.7,9.81-5.08C416,322.21,402.31,283.91,396.23,275.37Z" style="fill: rgb(255, 168, 167); transform-origin: 392.347px 297.259px;" id="elqmiw90zfdoj" class="animable"></path>
      <path d="M400.94,348.23a.52.52,0,0,1-.47-.33.49.49,0,0,1,.29-.64c2.77-1,8-1.41,10.54-.33a.49.49,0,0,1,.27.65.51.51,0,0,1-.65.27c-2.33-1-7.26-.61-9.81.35A.47.47,0,0,1,400.94,348.23Z" style="fill: rgb(224, 224, 224); transform-origin: 406.023px 347.26px;" id="eltmwobtevz5" class="animable"></path>
      <path d="M403,343.91a.48.48,0,0,1-.46-.32.5.5,0,0,1,.29-.65c2.53-.95,7-1.25,9.78-.08a.51.51,0,0,1,.27.65.5.5,0,0,1-.66.27c-2.48-1-6.68-.79-9,.1Z" style="fill: rgb(224, 224, 224); transform-origin: 407.71px 343.004px;" id="eli0p3lu0l338" class="animable"></path>
      <path d="M404.53,339.79a.49.49,0,0,1-.43-.26.5.5,0,0,1,.19-.68c2.21-1.23,6.89-1.25,9.44,0a.5.5,0,0,1-.42.91c-2.28-1.09-6.59-1.08-8.53,0A.45.45,0,0,1,404.53,339.79Z" style="fill: rgb(224, 224, 224); transform-origin: 409.027px 338.862px;" id="elakvnk8h6igj" class="animable"></path>
      <path d="M328.22,367.13a3.11,3.11,0,0,0,2.32,2.89c1.77.68,7.35,2.49,12.61,0,6.71-3.15,7.67-5.38,9.57-8.43,2.42-3.88,1.74-5.49,4.58-9.13a35.57,35.57,0,0,0,3.13-3.87,6,6,0,0,0-.27-2.53Z" style="fill: #37474F; transform-origin: 344.342px 358.677px;" id="elgmlfxjusdma" class="animable"></path>
      <path d="M345.41,338.4l-.52-1.47c-.94.32-1,3.72-2.35,7.56a28.76,28.76,0,0,1-5.14,8.65c-3.42,3.89-7.9,8-9.5,11.87s8.07,5.21,11.62,4.45a18.42,18.42,0,0,0,11.77-8.31c1.76-2.74,2.73-5.86,4-8s4.36-4.72,4.9-7.09c.29-1.31-.53-4-1.39-6.26-.8-2.07-1.8-4.66-2.5-4.38,0,.26,0,1,0,1a9.08,9.08,0,0,1-5.62,3.06A7.93,7.93,0,0,1,345.41,338.4Z" style="fill: rgb(69, 90, 100); transform-origin: 343.986px 352.531px;" id="elyjxl1rbonz" class="animable"></path>
      <path d="M364.08,189.14l-28.66,5.45c-8.5,23.49-13.53,66.26-14.28,72.56-.8,6.7,1.13,11.11,5,19.52l20.19-11.75c2.06-7.82,7.69-22.35,11.76-38.77C364.52,210.05,365,200.82,364.08,189.14Z" style="fill: rgb(255, 168, 167); transform-origin: 342.7px 237.905px;" id="ely3kcgeti0h" class="animable"></path>
      <path d="M352,286c-1.73-5.5-3.91-7.88-5.7-11l-22.08,7.53c8.18,18.76,21.2,55.95,21.2,55.95,2.79,3.26,10.49.56,10.89-1.81C356.3,336.59,355.13,296,352,286Z" style="fill: rgb(255, 168, 167); transform-origin: 340.265px 307.493px;" id="elrbmac6eflb" class="animable"></path>
      <path d="M334,356.71a.49.49,0,0,1-.34-.45.5.5,0,0,1,.48-.52c2.95-.14,8,1.11,10.13,2.93a.5.5,0,0,1-.65.76c-1.91-1.64-6.73-2.82-9.44-2.69A.57.57,0,0,1,334,356.71Z" style="fill: rgb(224, 224, 224); transform-origin: 339.052px 357.64px;" id="el4qi1u9bo40t" class="animable"></path>
      <path d="M337.33,353.25a.5.5,0,0,1-.35-.45.5.5,0,0,1,.48-.52c2.7-.13,7,1,9.33,2.93a.51.51,0,0,1,0,.71.49.49,0,0,1-.7.05c-2-1.76-6.11-2.81-8.63-2.69A.48.48,0,0,1,337.33,353.25Z" style="fill: rgb(224, 224, 224); transform-origin: 341.957px 354.182px;" id="elvs5gu9nkuc9" class="animable"></path>
      <path d="M340,349.79a.49.49,0,0,1-.34-.37.5.5,0,0,1,.39-.59c2.49-.49,6.94.93,9,2.87a.5.5,0,0,1,0,.71.51.51,0,0,1-.71,0c-1.83-1.73-5.93-3.05-8.11-2.62A.42.42,0,0,1,340,349.79Z" style="fill: rgb(224, 224, 224); transform-origin: 344.424px 350.643px;" id="elqs1v2vsac47" class="animable"></path>
      <path d="M380.13,185.21s7.49,11.29,9,20.82c2.58,16.22-.88,46.14-.88,46.14-7.05,5.07-22.17,6.59-29.87,4.4l-2.48-11.07-2.76,9.76c-10.51-1-21.18-4.6-29.51-10.9,0,0,.85-7.63,3.81-21.56,3.36-15.79,8.05-33.57,10.07-38.64,0,0,1,8.82,19.5,9.54S380.13,185.21,380.13,185.21Z" style="fill: rgb(69, 90, 100); transform-origin: 356.858px 220.852px;" id="elqn8p4k05lip" class="animable"></path>
      <path d="M353.15,255.26l2.76-9.76-2.2-21.56a49.49,49.49,0,0,1-11-6.41,34.22,34.22,0,0,0,7.54,7.75l4.46,19.85Z" style="fill: #37474F; transform-origin: 349.31px 236.395px;" id="elj9bq5viimk" class="animable"></path>
      <path d="M313.22,107.75c8.84,18.91,20.49,31,25.1,43.05,7.41-.05,18.17-10.78,13.13-18.73-4-2.79-12.91-14.92-20.33-26.14-2.61-4-4.58-7.25-5.13-10.43-.77-4.43-4.22-21.49-3.6-28.37a4.8,4.8,0,0,1,1.51-3c2.42-2.3,2.54-4.26,4.16-6.86,1.26-2,2.55-2.74,2.22-3.24a2.72,2.72,0,0,0-3.66-.49,13.83,13.83,0,0,0-2.95,2.5,27.74,27.74,0,0,1,2.66-7.3c2.86-5.52,2.42-8.45-5.35-6.89-4.88,1-9,4.12-10.39,15.61a145.56,145.56,0,0,0-.54,14.75c0,8.93.05,18.29.7,25.71A26.39,26.39,0,0,0,313.22,107.75Z" style="fill: rgb(255, 168, 167); transform-origin: 331.392px 96.1165px;" id="el49ncmkcvp6q" class="animable"></path>
      <path d="M338.51,179.06c-.44-4.8-.8-8.52-1.26-12.79-7.8-7.29-6.57-16-3.37-21.68,6.58-11.64,15.32-16.22,15.32-16.22l16-.45c12.18-.17,13.22,0,15.07.45,4.72,1,4.27,6.19,4.54,11.19.3,5.49.77,6.37-.51,15.48l-5.21,13.64-.32,8s9.05,16.31,10.47,26.51c0,0-5.24,0-9.72-5.2,0,0-5.59,9.54-20.69,10.3s-25.46-11.64-25.46-11.64Z" style="fill: #37474F; transform-origin: 360.32px 168.089px;" id="elawozl04ewng" class="animable"></path>
      <g id="el3akxzkfb5lg">
        <path d="M369.8,161.87A12.53,12.53,0,0,1,358,168.62a13.2,13.2,0,0,1-11.3-6.9s.44,9.21,11.32,9.1S369.8,161.87,369.8,161.87Z" style="opacity: 0.1; transform-origin: 358.25px 166.27px;" class="animable" id="el51anwgj90e"></path>
      </g>
      <path d="M373.28,75.24c5.14,2.66,7.76,5.85,12,7s7.66-.08,10.83-2.7c3.59-3,5.3-6.7,9-9s8.38-3.73,12.54-2.32c5.18,1.77,8.07,7.32,9.4,12.63,1.66,6.59,1,14-2.7,19.78a53,53,0,0,1-28.65,21.42,58,58,0,0,1-43.44-3.9c-5.51-2.84-7.29-5.28-11.28-9.89s-5.49-10.21-4.23-17.64c1.2-7.12,5-11.71,12.25-15.51A25.25,25.25,0,0,1,373.28,75.24Z" style="fill: rgb(69, 90, 100); transform-origin: 382.113px 96.1156px;" id="eljz4uqv181uq" class="animable"></path>
      <path d="M347.07,84.22c-2.66,1.49-6.06,8-6.07,21.84,0,11.73,3.72,14.72,5.6,15.6s5.58.46,9.18,0l-.17,7s-10.15,10.56-1.95,11.81c4.09.62,9.33-1.85,12.88-4.52a13.93,13.93,0,0,0,4.73-6.42l.29-16.17s2.05,2.1,5.7-.94c3-2.5,4.1-6.82,1.86-9.21a5.13,5.13,0,0,0-8.2,1.43s-2.13,1.18-4.14-2.77a24.06,24.06,0,0,1-10-3.55A21.93,21.93,0,0,1,347.07,84.22Z" style="fill: rgb(255, 168, 167); transform-origin: 360.654px 112.393px;" id="elpnngd4agnw" class="animable"></path>
      <path d="M356.23,102.74a1.47,1.47,0,1,0,1.58-1.42A1.51,1.51,0,0,0,356.23,102.74Z" style="fill: rgb(38, 50, 56); transform-origin: 357.699px 102.787px;" id="elivdy88egpsi" class="animable"></path>
      <g id="elaaqumhjmkfq">
        <g style="opacity: 0.5; mix-blend-mode: multiply; transform-origin: 353.52px 113.5px;" class="animable" id="elxm6caw53d">
          <path d="M355.76,111.88l-4.59,1.5a2.37,2.37,0,0,0,3,1.63A2.53,2.53,0,0,0,355.76,111.88Z" style="fill: rgb(242, 143, 143); transform-origin: 353.52px 113.5px;" id="el0lwhkoapoemb" class="animable"></path>
        </g>
      </g>
      <path d="M343,97.83l3-2a1.75,1.75,0,0,0-2.47-.57A1.91,1.91,0,0,0,343,97.83Z" style="fill: rgb(38, 50, 56); transform-origin: 344.357px 96.4004px;" id="eld9yhgjioaio" class="animable"></path>
      <path d="M358.41,97.24l3.36,1.38a1.74,1.74,0,0,0-.92-2.35A1.9,1.9,0,0,0,358.41,97.24Z" style="fill: rgb(38, 50, 56); transform-origin: 360.172px 97.3757px;" id="el76bfo7i60qc" class="animable"></path>
      <path d="M343.72,102.12a1.48,1.48,0,1,0,1.59-1.43A1.53,1.53,0,0,0,343.72,102.12Z" style="fill: rgb(38, 50, 56); transform-origin: 345.199px 102.167px;" id="el4jfyrq9wae6" class="animable"></path>
      <g id="elphyaiz4q398">
        <g style="opacity: 0.5; mix-blend-mode: multiply; transform-origin: 348.28px 105.875px;" class="animable" id="elii7p32yxhjp">
          <polygon points="350.82 101.44 350.37 110.31 345.74 108.75 350.82 101.44" style="fill: rgb(242, 143, 143); transform-origin: 348.28px 105.875px;" id="el52jl6223auu" class="animable"></polygon>
        </g>
      </g>
      <g id="elclfbqpt1i75">
        <g style="opacity: 0.5; mix-blend-mode: multiply; transform-origin: 362.185px 120.05px;" class="animable" id="elpj9wp7ijubi">
          <path d="M355.78,121.61c3.78-.4,11.59-2.45,12.87-5.48a8,8,0,0,1-2.81,3.84c-2.37,1.93-10.12,4-10.12,4Z" style="fill: rgb(242, 143, 143); transform-origin: 362.185px 120.05px;" id="el6p8i33gq6v2" class="animable"></path>
        </g>
      </g>
      <path d="M370.92,104.63l-.15,6.17h0a4.21,4.21,0,0,1-4.1-4.3l.14-5.69Z" style="fill: rgb(69, 90, 100); transform-origin: 368.795px 105.805px;" id="elwcy4r0gv5h" class="animable"></path>
      <path d="M410.9,107.21c-8.72,21.23-19.52,34.24-26.56,47.83-12,.69-13.09-17.84-7.68-25.54,0,0,20.85-25.22,22.69-34.45,1.65-8.19,5.26-21.26,5-28.16a4.75,4.75,0,0,0-1.37-3c-2.3-2.41-2.32-4.38-3.81-7.06-1.17-2.09-2.42-2.86-2.07-3.34a2.72,2.72,0,0,1,3.68-.31,13.91,13.91,0,0,1,2.83,2.64,28,28,0,0,0-2.31-7.42c-2.59-5.65-2-8.56,5.69-6.63,4.82,1.21,7.88,5.18,8.74,16.72A114.5,114.5,0,0,1,416,72.87c-.73,8.9-1.54,17.42-2.54,24.8A38.94,38.94,0,0,1,410.9,107.21Z" style="fill: rgb(255, 168, 167); transform-origin: 394.829px 98.1169px;" id="el4fg51d67gw5" class="animable"></path>
      <path d="M400.94,348.23a.52.52,0,0,1-.47-.33.49.49,0,0,1,.29-.64c2.77-1,8-1.41,10.54-.33a.49.49,0,0,1,.27.65.51.51,0,0,1-.65.27c-2.33-1-7.26-.61-9.81.35A.47.47,0,0,1,400.94,348.23Z" style="fill: rgb(224, 224, 224); transform-origin: 406.023px 347.26px;" id="el4509zj3ney9" class="animable"></path>
      <path d="M403,343.91a.48.48,0,0,1-.46-.32.5.5,0,0,1,.29-.65c2.53-.95,7-1.25,9.78-.08a.51.51,0,0,1,.27.65.5.5,0,0,1-.66.27c-2.48-1-6.68-.79-9,.1Z" style="fill: rgb(224, 224, 224); transform-origin: 407.71px 343.004px;" id="elg5mcuyuhilt" class="animable"></path>
      <path d="M404.53,339.79a.49.49,0,0,1-.43-.26.5.5,0,0,1,.19-.68c2.21-1.23,6.89-1.25,9.44,0a.5.5,0,0,1-.42.91c-2.28-1.09-6.59-1.08-8.53,0A.45.45,0,0,1,404.53,339.79Z" style="fill: rgb(224, 224, 224); transform-origin: 409.027px 338.862px;" id="elwyx0gdo6f" class="animable"></path>
      <path d="M423.9,322.44a.74.74,0,0,0-1,.35.71.71,0,0,0,0,.57.73.73,0,0,0,.38.43c1.93.93,3.35,3.15,3.9,6.07.62,3.33,0,6.82-1.57,8.48a.75.75,0,0,0,0,1.06.77.77,0,0,0,.52.2.75.75,0,0,0,.54-.24c1.89-2,2.67-5.95,1.95-9.78C428,326.19,426.27,323.58,423.9,322.44Z" style="fill: rgb(224, 224, 224); transform-origin: 425.863px 330.981px;" id="el0b50sxnpi247" class="animable"></path>
      <path d="M430.41,323.32a.74.74,0,0,0-1,.22.76.76,0,0,0,.21,1c3.61,2.38,3.3,8.74,1.76,11.14a.7.7,0,0,0-.1.56.72.72,0,0,0,.32.47.73.73,0,0,0,.41.12.75.75,0,0,0,.63-.34C434.46,333.63,434.81,326.23,430.41,323.32Z" style="fill: rgb(224, 224, 224); transform-origin: 431.609px 330.021px;" id="elc2ijw3fb4fg" class="animable"></path>
      <path d="M423.35,53.21c1.32-2.42,1.12-6.43-.52-10-1.45-3.13-3.76-5.23-6.34-5.76a.76.76,0,0,0-.88.59.75.75,0,0,0,.58.88c2.11.44,4,2.23,5.28,4.92,1.42,3.08,1.65,6.62.56,8.62a.76.76,0,0,0,.66,1.11A.77.77,0,0,0,423.35,53.21Z" style="fill: rgb(224, 224, 224); transform-origin: 419.906px 45.5038px;" id="el1tv7cm2cmlz" class="animable"></path>
      <path d="M422.53,38.16c4.08,1.42,5.34,7.66,4.44,10.37a.75.75,0,0,0,.47.95,1,1,0,0,0,.24,0,.74.74,0,0,0,.71-.51c1.09-3.27-.39-10.53-5.37-12.26a.75.75,0,0,0-.95.46.73.73,0,0,0,0,.58A.77.77,0,0,0,422.53,38.16Z" style="fill: rgb(224, 224, 224); transform-origin: 425.369px 43.0784px;" id="eljehtkn7fhah" class="animable"></path>
    </g>
    <g id="freepik--Bu--inject-2" class="animable" style="transform-origin: 282.424px 115.124px;">
      <path d="M259.57,129.82a.78.78,0,0,1-1-.48l-5.73-17.21a.71.71,0,0,1,0-.57.73.73,0,0,1,.43-.38l8.58-2.86a8.61,8.61,0,0,1,3.17-.52,5.77,5.77,0,0,1,2.39.63,5.06,5.06,0,0,1,1.65,1.43,7.19,7.19,0,0,1,1,1.88,4.91,4.91,0,0,1,.27,1.4,5,5,0,0,1-.08,1.13,3.68,3.68,0,0,1-.27.83c-.12.22-.21.4-.29.52a4.26,4.26,0,0,1,2,1.18,6,6,0,0,1,1.17,2.14,7.75,7.75,0,0,1,.39,2.24,5.21,5.21,0,0,1-.43,2.2,5.65,5.65,0,0,1-1.47,1.94,7.86,7.86,0,0,1-2.71,1.45Zm5.63-16.32a1.65,1.65,0,0,0-.78-1,1.78,1.78,0,0,0-1.35,0l-4.13,1.38,1,3,4.13-1.38a1.72,1.72,0,0,0,1.07-.82A1.55,1.55,0,0,0,265.2,113.5Zm-2.8,10.79,4.4-1.47a1.86,1.86,0,0,0,1.12-.89,1.6,1.6,0,0,0,.09-1.32,1.65,1.65,0,0,0-.86-1,1.87,1.87,0,0,0-1.44,0L261.32,121Z" style="fill: #37474F; transform-origin: 263.016px 118.831px;" id="elg3dooszvt1i" class="animable"></path>
      <path d="M273,110.76a.73.73,0,0,1,0-.58.7.7,0,0,1,.43-.38l3.36-1.12a.74.74,0,0,1,.58,0,.79.79,0,0,1,.38.44l2.24,6.73a3.19,3.19,0,0,0,1.12,1.67,2,2,0,0,0,1.91.14,2,2,0,0,0,1.43-1.25,3.19,3.19,0,0,0-.12-2l-2.24-6.74a.73.73,0,0,1,0-.58.75.75,0,0,1,.44-.38l3.35-1.12a.73.73,0,0,1,.58.05.7.7,0,0,1,.38.43l4.14,12.41a.78.78,0,0,1,0,.58.72.72,0,0,1-.44.38l-3.09,1a.74.74,0,0,1-.58,0,.75.75,0,0,1-.38-.44l-.2-.61a4.78,4.78,0,0,1-.33.75,3.52,3.52,0,0,1-.59.75,4.78,4.78,0,0,1-.93.73,6.28,6.28,0,0,1-1.37.62,6.08,6.08,0,0,1-4.61-.09,6.44,6.44,0,0,1-3.06-4.1Z" style="fill: #37474F; transform-origin: 281.988px 114.101px;" id="el7h2k9qj8wps" class="animable"></path>
      <path d="M297.1,110.14a.73.73,0,0,1,0,.58.75.75,0,0,1-.44.38l-3.35,1.12a.73.73,0,0,1-.58,0,.7.7,0,0,1-.38-.43l-3.83-11.48a.78.78,0,0,1,.48-1l3.36-1.12a.71.71,0,0,1,.57,0,.75.75,0,0,1,.39.43Zm1.91,5.73a.71.71,0,0,1,0,.57.77.77,0,0,1-.44.39l-3.35,1.11a.69.69,0,0,1-.58,0,.7.7,0,0,1-.38-.43l-.9-2.69a.73.73,0,0,1,.05-.58.68.68,0,0,1,.43-.38l3.36-1.12a.75.75,0,0,1,.95.48Z" style="fill: #37474F; transform-origin: 293.772px 108.067px;" id="elrru9733vd6r" class="animable"></path>
      <g id="el3tp3gjru9hn">
        <g style="opacity: 0.15; transform-origin: 275.925px 113.998px;" class="animable" id="eldzlrst1at0r">
          <path d="M259.57,129.82a.78.78,0,0,1-1-.48l-5.73-17.21a.71.71,0,0,1,0-.57.73.73,0,0,1,.43-.38l8.58-2.86a8.61,8.61,0,0,1,3.17-.52,5.77,5.77,0,0,1,2.39.63,5.06,5.06,0,0,1,1.65,1.43,7.19,7.19,0,0,1,1,1.88,4.91,4.91,0,0,1,.27,1.4,5,5,0,0,1-.08,1.13,3.68,3.68,0,0,1-.27.83c-.12.22-.21.4-.29.52a4.26,4.26,0,0,1,2,1.18,6,6,0,0,1,1.17,2.14,7.75,7.75,0,0,1,.39,2.24,5.21,5.21,0,0,1-.43,2.2,5.65,5.65,0,0,1-1.47,1.94,7.86,7.86,0,0,1-2.71,1.45Zm5.63-16.32a1.65,1.65,0,0,0-.78-1,1.78,1.78,0,0,0-1.35,0l-4.13,1.38,1,3,4.13-1.38a1.72,1.72,0,0,0,1.07-.82A1.55,1.55,0,0,0,265.2,113.5Zm-2.8,10.79,4.4-1.47a1.86,1.86,0,0,0,1.12-.89,1.6,1.6,0,0,0,.09-1.32,1.65,1.65,0,0,0-.86-1,1.87,1.87,0,0,0-1.44,0L261.32,121Z" id="elgvuynmkncji" class="animable" style="transform-origin: 263.016px 118.831px;"></path>
          <path d="M273,110.76a.73.73,0,0,1,0-.58.7.7,0,0,1,.43-.38l3.36-1.12a.74.74,0,0,1,.58,0,.79.79,0,0,1,.38.44l2.24,6.73a3.19,3.19,0,0,0,1.12,1.67,2,2,0,0,0,1.91.14,2,2,0,0,0,1.43-1.25,3.19,3.19,0,0,0-.12-2l-2.24-6.74a.73.73,0,0,1,0-.58.75.75,0,0,1,.44-.38l3.35-1.12a.73.73,0,0,1,.58.05.7.7,0,0,1,.38.43l4.14,12.41a.78.78,0,0,1,0,.58.72.72,0,0,1-.44.38l-3.09,1a.74.74,0,0,1-.58,0,.75.75,0,0,1-.38-.44l-.2-.61a4.78,4.78,0,0,1-.33.75,3.52,3.52,0,0,1-.59.75,4.78,4.78,0,0,1-.93.73,6.28,6.28,0,0,1-1.37.62,6.08,6.08,0,0,1-4.61-.09,6.44,6.44,0,0,1-3.06-4.1Z" id="elu808ifpii8" class="animable" style="transform-origin: 281.988px 114.101px;"></path>
          <path d="M297.1,110.14a.73.73,0,0,1,0,.58.75.75,0,0,1-.44.38l-3.35,1.12a.73.73,0,0,1-.58,0,.7.7,0,0,1-.38-.43l-3.83-11.48a.78.78,0,0,1,.48-1l3.36-1.12a.71.71,0,0,1,.57,0,.75.75,0,0,1,.39.43Zm1.91,5.73a.71.71,0,0,1,0,.57.77.77,0,0,1-.44.39l-3.35,1.11a.69.69,0,0,1-.58,0,.7.7,0,0,1-.38-.43l-.9-2.69a.73.73,0,0,1,.05-.58.68.68,0,0,1,.43-.38l3.36-1.12a.75.75,0,0,1,.95.48Z" id="elyzanm6i178" class="animable" style="transform-origin: 293.772px 108.067px;"></path>
        </g>
      </g>
      <path d="M301.47,132.11a21.31,21.31,0,0,1-3-.22c-4.52-.66-8.13-2.68-9.93-5.54a.81.81,0,0,1,1.37-.86c1.52,2.43,4.8,4.22,8.79,4.81,4.68.68,9.31-.4,12.07-2.83a.81.81,0,0,1,1.07,1.21A15.93,15.93,0,0,1,301.47,132.11Z" style="fill: rgb(224, 224, 224); transform-origin: 300.254px 128.633px;" id="elej79wdpxqao" class="animable"></path>
    </g>
  </g>
  <g id="freepik--character-1--inject-2" class="animable" style="transform-origin: 124.281px 229.764px;">
    <g id="freepik--character--inject-2" class="animable" style="transform-origin: 124.281px 229.764px;">
      <path d="M153.32,370.82c-2.44,4.12-7.4,3.8-12.29,4.23l-8.28-20.12,15.06-7.06Z" style="fill: rgb(255, 168, 167); transform-origin: 143.035px 361.46px;" id="el97wqcl9vz9k" class="animable"></path>
      <path d="M114.84,393.51a4.76,4.76,0,0,0,.84,3.72c.67.69,6.4,3.83,12.77,2.22a30.22,30.22,0,0,0,12.74-6.36c3.5-2.71,6.07-3.37,9.92-3.84s6.39-1.54,6.59-2.55c.34-1.77.25-2.86-.57-2.74Z" style="fill: rgb(38, 50, 56); transform-origin: 136.32px 391.927px;" id="elhixgingxqd" class="animable"></path>
      <path d="M117.54,388.22c6.08-3.2,11.94-6.79,15.53-10.06a31.9,31.9,0,0,0,2.4-2.38,11,11,0,0,0,1.52-3.3c.24-.72.59-2.65,1.54-2.78a1.17,1.17,0,0,1,.62.16,9,9,0,0,0,1.86.74,11.69,11.69,0,0,0,2,.23,11.56,11.56,0,0,0,4-.63,2.85,2.85,0,0,1,.75-.19.82.82,0,0,1,.7.25c.31.36.13,1,.49,1.32a1,1,0,0,0,.87.1,3.61,3.61,0,0,0,2.22-1.69,10.22,10.22,0,0,0,.62-1.72s-.22-.69-.33-1.06a1.74,1.74,0,0,1,1.25.65,2.93,2.93,0,0,1,.38,1.17c.55,2.83,1.85,5.33,2.61,8.08a39,39,0,0,1,1,3.86c.12.71.48,2.76-.09,3.35-2.9,3-8.51,2.86-11.62,3.66-4.4,1.14-6.19,4.64-12.21,7.34-9.7,4.36-16.38.93-18.42-.64C113.88,392.57,114.22,390,117.54,388.22Z" style="fill: #37474F; transform-origin: 136.141px 382.33px;" id="ellvv4z37bc9r" class="animable"></path>
      <g id="el7wfzydgsban">
        <path d="M117.54,388.22c6.08-3.2,11.94-6.79,15.53-10.06a31.9,31.9,0,0,0,2.4-2.38,11,11,0,0,0,1.52-3.3c.24-.72.59-2.65,1.54-2.78a1.17,1.17,0,0,1,.62.16,9,9,0,0,0,1.86.74,11.69,11.69,0,0,0,2,.23,11.56,11.56,0,0,0,4-.63,2.85,2.85,0,0,1,.75-.19.82.82,0,0,1,.7.25c.31.36.13,1,.49,1.32a1,1,0,0,0,.87.1,3.61,3.61,0,0,0,2.22-1.69,10.22,10.22,0,0,0,.62-1.72s-.22-.69-.33-1.06a1.74,1.74,0,0,1,1.25.65,2.93,2.93,0,0,1,.38,1.17c.55,2.83,1.85,5.33,2.61,8.08a39,39,0,0,1,1,3.86c.12.71.48,2.76-.09,3.35-2.9,3-8.51,2.86-11.62,3.66-4.4,1.14-6.19,4.64-12.21,7.34-9.7,4.36-16.38.93-18.42-.64C113.88,392.57,114.22,390,117.54,388.22Z" style="opacity: 0.4; transform-origin: 136.141px 382.33px;" class="animable" id="elwp1qknhbj5"></path>
      </g>
      <path d="M159.39,225.94,158,237.78l-22.61,65.36s4.18,4.34,7.79,15c2.51,7.45,7.67,39.2,7.67,39.2a31.44,31.44,0,0,1-14.87,6.29s-26.67-53.26-27-61.54c-.42-10.88,10.13-88.43,10.13-88.43Z" style="fill: #37474F; transform-origin: 134.179px 288.645px;" id="elryku82g5t1" class="animable"></path>
      <path d="M93.07,60a2.05,2.05,0,0,1,2.08-.17,2.12,2.12,0,0,1,.93,1.92A6.67,6.67,0,0,1,95.53,64a67.88,67.88,0,0,0-3.42,12.93,4.31,4.31,0,0,0,.26,2.9,1.16,1.16,0,0,0,.86.54,7.74,7.74,0,0,0,3.15-.85,8.09,8.09,0,0,1,4.72-.27c.93.22,2.7,1.19,1.25,2.3-.66.5-3,.69-6.34,4.22S90.21,89,87,92.4c-.67.72-2.13,4.48-4.38,10.62L70,98.76a59.83,59.83,0,0,0,4.23-10c.67-1.86,1.7-6.32,2.08-8.12.4-2,.85-3.89,1.23-5.84a40.84,40.84,0,0,1,2.67-8.49,8,8,0,0,1,2.37-3.44,7.44,7.44,0,0,1,2.83-1.14c.88-.2,1.62-.7,2.51-.92a3.83,3.83,0,0,1,3.59.77A5.94,5.94,0,0,1,93.07,60Z" style="fill: rgb(255, 168, 167); transform-origin: 86.4501px 81.3218px;" id="elqym6mm8xa3k" class="animable"></path>
      <path d="M113.93,145.18c-5.58-1.51-8.6-2.73-19.17-7.65-12.32-5.72-18.34-11.11-18.34-11.11l9.93-30.91c-3.25-.08-13.15-2.13-13.59-5.25,0,0-7.44,15.5-12.46,27.74-2.25,5.47-5,12-5.2,14.77s4.95,8.34,13.34,13.74c10.91,7,25.25,15.75,36.56,22.65C105,169.16,117.54,146.16,113.93,145.18Z" style="fill: rgb(69, 90, 100); transform-origin: 84.8386px 129.71px;" id="elswiihnse2q" class="animable"></path>
      <path d="M76.42,126.42c-2.2,2.37-4.92,4.8-9.12,5.37,0,0,5.28,1.47,10.91-3.87Z" style="fill: #37474F; transform-origin: 72.755px 129.198px;" id="elaf5mmc8iccj" class="animable"></path>
      <path d="M102.25,166.9c-3-11.92,2.11-22.68,9.14-22.68,10,0,36.7.73,34.9.6,2.24.65,8.54,4.44,11.88,13.89,2,5.68,4.18,14.85,6.09,28.23a232.75,232.75,0,0,1,2.21,33.34c-9.82,2.91-36.09,8.46-53-.49C115.29,188.21,104.72,176.75,102.25,166.9Z" style="fill: #37474F; transform-origin: 133.924px 184.444px;" id="elrya7kbfs72" class="animable"></path>
      <g id="elbawicr1mxba">
        <circle cx="137.97" cy="108.22" r="14.04" style="fill: rgb(38, 50, 56); transform-origin: 137.97px 108.22px; transform: rotate(-17.55deg);" class="animable" id="elqxsj0iaeaud"></circle>
      </g>
      <path d="M122.43,127.66l-1-1.88-1-8.74-2.34,2.66-8.09-15s-3.49.43-4.74,3.14c-2.29,5-.07,12.17,3.52,21.34a22.71,22.71,0,0,0,2.45,4.94,8.17,8.17,0,0,0,7.18,3l4.17-.46-1-8.89Z" style="fill: rgb(38, 50, 56); transform-origin: 113.454px 120.931px;" id="el44q2wjjha8y" class="animable"></path>
      <path d="M118.21,119.39c-.87.66-.63,2-1.92,1s-4-4-7.15-.59c-2.53,2.81.4,8,3.11,9.6,3.37,1.94,4.87-.26,4.87-.26s.06,3.29-.32,15.53c-1.77,3.85-.57,6.32,4.85,6.47a16,16,0,0,0,12.84-5.24l.55-6.34a41.62,41.62,0,0,0,6.28-.26c3.34-.54,6.34-.62,7.59-6.18,1.37-6.09.87-17.09-2.18-27.78-3.91-13.71-20.47-11.76-28.7-5.23S118.21,119.39,118.21,119.39Z" style="fill: rgb(255, 168, 167); transform-origin: 128.903px 123.127px;" id="elnv8cxxvn1jm" class="animable"></path>
      <path d="M118,121.82c-1,.7-1.67-3-5.28-4.1-.4-.12-.65-.58-.85-.91-1.42-2.5-1.82-5.8-2.33-8.58-.22-1.23-.43-2.46-.61-3.7-.3-2.09.78-3.86,2.14-5.38a25.4,25.4,0,0,1,6.48-5c2.56-1.45,5.39-2.32,8-3.59,3.05-1.47,6-3.72,6.94-7,.13-.46.29-1,.75-1.13s.83.22,1.11.56c1.57,1.92,1.77,4.57,1.91,7a8.76,8.76,0,0,0,5.1-6.29,3.82,3.82,0,0,1,.3-1.1,1,1,0,0,1,.92-.57,1.36,1.36,0,0,1,.9.75,14,14,0,0,1,1.36,11.8,7.79,7.79,0,0,0,4.48-3.4,10.11,10.11,0,0,1-.79,7.83,15.77,15.77,0,0,1-5.88,6.19,17.16,17.16,0,0,1-9.46,1.81,33,33,0,0,1-9.45-2.35,9.78,9.78,0,0,1-2.72,4.5,9.65,9.65,0,0,1-2.16,1.54c-.25.14-.93.3-1,.55s.21.75.28,1a25.52,25.52,0,0,1,.57,5.92C118.76,119.18,119,121.14,118,121.82Z" style="fill: rgb(38, 50, 56); transform-origin: 129.324px 101.969px;" id="elnbl5282zyn" class="animable"></path>
      <path d="M110.15,105.76l-6-2.41a3.12,3.12,0,0,1,4.12-1.88A3.39,3.39,0,0,1,110.15,105.76Z" style="fill: rgb(38, 50, 56); transform-origin: 107.253px 103.501px;" id="elmpfz0kkxvy" class="animable"></path>
      <path d="M122.88,138.49c-2-2.05-3.85-7.49-3.85-7.49.6,1.11,3.81,6,5.88,6.81,3.1,1.24,10.13,1.7,10.13,1.7l-.22,2.52C132.68,141.79,125,140.7,122.88,138.49Z" style="fill: rgb(242, 143, 143); transform-origin: 127.035px 136.515px;" id="el2hoy4froqn" class="animable"></path>
      <path d="M132.7,118.34a1.86,1.86,0,1,1-2-1.72A1.89,1.89,0,0,1,132.7,118.34Z" style="fill: rgb(38, 50, 56); transform-origin: 130.845px 118.475px;" id="elxkg8atr2xt" class="animable"></path>
      <path d="M128.06,112.22,126.3,116a2.18,2.18,0,0,1-1-2.83A2,2,0,0,1,128.06,112.22Z" style="fill: rgb(38, 50, 56); transform-origin: 126.585px 113.994px;" id="elm3emqtaqovg" class="animable"></path>
      <path d="M146.9,112.57,143.63,110a2,2,0,0,1,2.87-.41A2.19,2.19,0,0,1,146.9,112.57Z" style="fill: rgb(38, 50, 56); transform-origin: 145.471px 110.865px;" id="el9uo0o30tql5" class="animable"></path>
      <path d="M146.28,116.28a1.86,1.86,0,1,1-2.06-1.72A1.89,1.89,0,0,1,146.28,116.28Z" style="fill: rgb(38, 50, 56); transform-origin: 144.424px 116.41px;" id="elymq6etuj0p" class="animable"></path>
      <polygon points="137.97 116.21 139.31 126.3 144.46 124.08 137.97 116.21" style="fill: rgb(242, 143, 143); transform-origin: 141.215px 121.255px;" id="elrvoklq5rm1a" class="animable"></polygon>
      <path d="M132.93,133c-3.09-.91-4.3-1.41-3.77-2.71a4.56,4.56,0,0,1,5.39-2.15,3.85,3.85,0,0,1,2.53,4.4C136.85,133.58,135.71,133.8,132.93,133Z" style="fill: rgb(177, 102, 104); transform-origin: 133.097px 130.703px;" id="elsknqtf2eano" class="animable"></path>
      <path d="M133.15,133a3.17,3.17,0,0,0-.07-1.43,3.12,3.12,0,0,0-3.34-2.2,2.65,2.65,0,0,0-.58.87c-.53,1.3.68,1.8,3.77,2.71Z" style="fill: rgb(242, 143, 143); transform-origin: 131.12px 131.175px;" id="el9np4wbwinet" class="animable"></path>
      <path d="M65.38,169.33a2.05,2.05,0,0,1,.13-2.05,2.1,2.1,0,0,1,2-.63,6.35,6.35,0,0,1,2,.85,67.13,67.13,0,0,0,12.11,5.19,4.3,4.3,0,0,0,2.86.16,1.19,1.19,0,0,0,.64-.76,7.75,7.75,0,0,0-.37-3.19,8,8,0,0,1,.41-4.63c.35-.87,1.56-2.46,2.42-.89.4.72.23,3.07,3.2,6.78s2.3,6.11,5.2,9.71c.61.75,4.06,2.71,9.71,5.79l-6,11.66a58.29,58.29,0,0,0-9.11-5.55,80.52,80.52,0,0,0-7.61-3.19c-1.83-.68-3.66-1.39-5.51-2.05a40.31,40.31,0,0,1-7.88-3.81,8.06,8.06,0,0,1-3-2.81A7.54,7.54,0,0,1,66,177c-.07-.88-.44-1.68-.53-2.57A3.78,3.78,0,0,1,66.69,171,5.83,5.83,0,0,1,65.38,169.33Z" style="fill: rgb(255, 168, 167); transform-origin: 85.4278px 180.018px;" id="elfo8hxoivg6b" class="animable"></path>
      <path d="M146.29,144.82c4.68.29,8,1.18,10.13,4,2.24,3,4.8,8.86,2.84,16.78-3,12.1-6,18.42-12.08,34.54-2.15,5.69-6,16.7-13.06,14.64-13.62-4-28.39-14-39.82-20.48l5.84-12.38,29.4,11.24,7.6-28S139.77,148.82,146.29,144.82Z" style="fill: rgb(69, 90, 100); transform-origin: 127.129px 179.927px;" id="elepos42r32fb" class="animable"></path>
      <path d="M129.54,193.15c3.49,1.36,7,5.43,7.47,7.27,0,0,.67-5.22-6.74-9.93Z" style="fill: #37474F; transform-origin: 133.283px 195.455px;" id="elnsevs3jmo5q" class="animable"></path>
      <path d="M120.24,287.43c-1.38,4.58-4.62,6.68-9.26,8.27L95.76,279.15l12.95-10.89Z" style="fill: rgb(255, 168, 167); transform-origin: 108px 281.98px;" id="ela37wfl9010i" class="animable"></path>
      <path d="M89,320.15a4.74,4.74,0,0,0,1.71,3.41c.81.51,7.13,2.19,12.93-.91a30.31,30.31,0,0,0,10.84-9.22c2.74-3.48,5.08-4.73,8.71-6.12s5.84-3,5.78-4.06c-.09-1.8-.45-2.83-1.2-2.51Z" style="fill: rgb(38, 50, 56); transform-origin: 108.986px 312.578px;" id="el83iwaqi63tk" class="animable"></path>
      <path d="M90.32,314.37c5.14-4.57,10-9.45,12.66-13.49a30.92,30.92,0,0,0,1.76-2.89,10.83,10.83,0,0,0,.69-3.57c.06-.75-.07-2.71.82-3.06a1.16,1.16,0,0,1,.64,0,8.44,8.44,0,0,0,2,.27,12.79,12.79,0,0,0,2-.26,11.57,11.57,0,0,0,3.78-1.59,2.93,2.93,0,0,1,.67-.37.89.89,0,0,1,.75.08c.38.28.37.95.79,1.17a1,1,0,0,0,.87-.12,3.61,3.61,0,0,0,1.75-2.17,11.12,11.12,0,0,0,.18-1.81s-.38-.62-.57-.95a1.68,1.68,0,0,1,1.37.33,2.87,2.87,0,0,1,.65,1c1.22,2.61,3.08,4.73,4.47,7.21a39.53,39.53,0,0,1,1.89,3.51c.28.67,1.12,2.57.71,3.28-2.08,3.64-7.56,4.82-10.39,6.34-4,2.16-4.9,6-10.1,10.06-8.37,6.56-15.68,4.83-18,3.79C87.81,319.47,87.52,316.86,90.32,314.37Z" style="fill: #37474F; transform-origin: 108.281px 303.859px;" id="el3tasz31la0j" class="animable"></path>
      <g id="elkilgytxxqw">
        <path d="M90.32,314.37c5.14-4.57,10-9.45,12.66-13.49a30.92,30.92,0,0,0,1.76-2.89,10.83,10.83,0,0,0,.69-3.57c.06-.75-.07-2.71.82-3.06a1.16,1.16,0,0,1,.64,0,8.44,8.44,0,0,0,2,.27,12.79,12.79,0,0,0,2-.26,11.57,11.57,0,0,0,3.78-1.59,2.93,2.93,0,0,1,.67-.37.89.89,0,0,1,.75.08c.38.28.37.95.79,1.17a1,1,0,0,0,.87-.12,3.61,3.61,0,0,0,1.75-2.17,11.12,11.12,0,0,0,.18-1.81s-.38-.62-.57-.95a1.68,1.68,0,0,1,1.37.33,2.87,2.87,0,0,1,.65,1c1.22,2.61,3.08,4.73,4.47,7.21a39.53,39.53,0,0,1,1.89,3.51c.28.67,1.12,2.57.71,3.28-2.08,3.64-7.56,4.82-10.39,6.34-4,2.16-4.9,6-10.1,10.06-8.37,6.56-15.68,4.83-18,3.79C87.81,319.47,87.52,316.86,90.32,314.37Z" style="opacity: 0.4; transform-origin: 108.281px 303.859px;" class="animable" id="elneiiprv1yw"></path>
      </g>
      <path d="M165.31,220.61c1.18,15.33-1,22.83-8.83,28.95-6.85,5.33-16.2,5.45-25.24,3.3-7.6-1.8-43-13.05-43-13.05s7.13-7.36,12.5,3.1c5.79,11.29,11.58,27.73,14.64,34.71-4.9,8.1-14,8.68-14,8.68s-16.24-19.44-25.62-32.6c-10.58-14.85-11.62-22.25-10.17-27.76,1.85-7,7-10,15.6-10.92,14.39-1.52,64.29,9.24,64.29,9.24A111.8,111.8,0,0,0,165.31,220.61Z" style="fill: rgb(69, 90, 100); transform-origin: 115.339px 250.586px;" id="el3kr2wzagcse" class="animable"></path>
      <path d="M101.25,243.9l-13-4.09,15.67,9.74A49.71,49.71,0,0,0,101.25,243.9Z" style="fill: #37474F; transform-origin: 96.085px 244.68px;" id="el8ge6hd43bo9" class="animable"></path>
      <path d="M170.86,107.53a1,1,0,0,1-.34.73,1,1,0,0,1-.76.28l-5-.22a1.08,1.08,0,0,1-1-1.11l.18-4a1,1,0,0,1,.35-.74,1,1,0,0,1,.76-.27l4.95.22a1.08,1.08,0,0,1,1,1.11Zm.39-8.45a1.08,1.08,0,0,1-1.11,1l-5-.22a1.06,1.06,0,0,1-.73-.35,1,1,0,0,1-.28-.76l.77-16.94a1.08,1.08,0,0,1,1.11-1L171,81a1.08,1.08,0,0,1,1,1.11Z" style="fill: #37474F; transform-origin: 167.88px 94.6758px;" id="el6tkj69r8g9v" class="animable"></path>
      <path d="M179.24,121.84a1.07,1.07,0,0,1-1.47.3l-4.13-2.74a1.07,1.07,0,0,1-.3-1.47l2.19-3.31a1,1,0,0,1,.68-.45,1,1,0,0,1,.8.15l4.13,2.74a1.07,1.07,0,0,1,.3,1.47Zm4.68-7a1,1,0,0,1-.68.45,1,1,0,0,1-.8-.15l-4.13-2.74a1.07,1.07,0,0,1-.3-1.47l9.37-14.14a1,1,0,0,1,.68-.44,1,1,0,0,1,.79.15L193,99.19a1,1,0,0,1,.44.67,1,1,0,0,1-.15.8Z" style="fill: #37474F; transform-origin: 183.317px 109.318px;" id="el7xb8hnaoo4k" class="animable"></path>
      <g id="elscpe57wyzp">
        <g style="opacity: 0.6; transform-origin: 183.317px 109.318px;" class="animable" id="elf8hitwg03g7">
          <path d="M179.24,121.84a1.07,1.07,0,0,1-1.47.3l-4.13-2.74a1.07,1.07,0,0,1-.3-1.47l2.19-3.31a1,1,0,0,1,.68-.45,1,1,0,0,1,.8.15l4.13,2.74a1.07,1.07,0,0,1,.3,1.47Zm4.68-7a1,1,0,0,1-.68.45,1,1,0,0,1-.8-.15l-4.13-2.74a1.07,1.07,0,0,1-.3-1.47l9.37-14.14a1,1,0,0,1,.68-.44,1,1,0,0,1,.79.15L193,99.19a1,1,0,0,1,.44.67,1,1,0,0,1-.15.8Z" style="fill: rgb(255, 255, 255); transform-origin: 183.317px 109.318px;" id="eloh5ha2ylijq" class="animable"></path>
        </g>
      </g>
    </g>
  </g>
  <g id="freepik--Chair--inject-2" class="animable" style="transform-origin: 296.339px 341.245px;">
    <g id="freepik--chair--inject-2" class="animable" style="transform-origin: 296.339px 341.245px;">
      <g id="freepik--character--inject-2" class="animable" style="transform-origin: 296.339px 341.245px;">
        <path d="M216.14,346.61h0a12.3,12.3,0,0,0,6,12.67l69.95,36.47.21,4,3.18,1.84-4.1,2.36L214,359.23Z" style="fill: #37474F; transform-origin: 254.74px 375.28px;" id="elk2vsn30w72" class="animable"></path>
        <path d="M289.18,421.78h0c.45-5.38-1.46-10.78-6.13-13.48l-63-36.4a5.92,5.92,0,0,0-8.8,4.15h0l4.2-25.09h0a12.07,12.07,0,0,0,5.86,12.43l65.26,37.71a3.11,3.11,0,0,0,4.89-2.55l.34-3.47Z" style="fill: rgb(69, 90, 100); transform-origin: 251.525px 386.37px;" id="ell3tslrd2ufp" class="animable"></path>
        <path d="M287.81,249.58l17.88,10.32-76.24,48.2a20.27,20.27,0,0,0-9.16,13.8l-11.11,71.88a1.24,1.24,0,0,1-1.84.88h0c-.42-.24-.66-.7-.52-2.45l6.35-76.39c.36-4.32,3.11-9.46,7.5-12.94Z" style="fill: rgb(69, 90, 100); transform-origin: 256.235px 322.202px;" id="ele4npm95uu8h" class="animable"></path>
        <path d="M370.58,344.42l.43,1a7.8,7.8,0,0,1-3.25,9.85l-70.3,40.58,1.76-10.51-2.64,15.77,78.79-45.62Z" style="fill: rgb(38, 50, 56); transform-origin: 335.975px 372.765px;" id="el1xvlxxe6mrf" class="animable"></path>
        <path d="M370.58,344.42l.17.74a5.88,5.88,0,0,1-8.37,7.45l-3-1.73-4,2.31,16.39,9.46,5.19-3.46Z" style="fill: rgb(38, 50, 56); transform-origin: 366.17px 353.535px;" id="elky5hkatbg1" class="animable"></path>
        <path d="M295.73,396.86l67.39-38.94a9.42,9.42,0,0,0,4.26-7.38v-4a9.41,9.41,0,0,0-4.26-7.37l-67.39-38.91a9.41,9.41,0,0,0-8.52,0L219.82,339.2a9.38,9.38,0,0,0-4.26,7.37v4a9.39,9.39,0,0,0,4.26,7.37l67.39,38.89A9.41,9.41,0,0,0,295.73,396.86Z" style="fill: #37474F; transform-origin: 291.47px 348.553px;" id="elpbij80a24gd" class="animable"></path>
        <g id="elwo0ikj5xcw">
          <path d="M295.73,396.86l67.39-38.94a9.42,9.42,0,0,0,4.26-7.38v-4a9.41,9.41,0,0,0-4.26-7.37l-67.39-38.91a9.41,9.41,0,0,0-8.52,0L219.82,339.2a9.38,9.38,0,0,0-4.26,7.37v4a9.39,9.39,0,0,0,4.26,7.37l67.39,38.89A9.41,9.41,0,0,0,295.73,396.86Z" style="fill: rgb(255, 255, 255); opacity: 0.7; transform-origin: 291.47px 348.553px;" class="animable" id="elzq6doklbqw"></path>
        </g>
        <g id="elxwtl1ms2nf">
          <path d="M294.48,397.4a7,7,0,0,0,1.25-.54l67.39-38.94a9.42,9.42,0,0,0,4.26-7.38v-4a9.57,9.57,0,0,0-3.46-6.81c1.51,1.35,1.25,3.17-.8,4.35l-67.07,38.73Z" style="fill: #37474F; opacity: 0.3; transform-origin: 330.93px 368.565px;" class="animable" id="el6kuby31u10v"></path>
        </g>
        <g id="elaeukzrdkf0q">
          <path d="M215.56,346.57v4a9.38,9.38,0,0,0,4.26,7.37l67.39,38.9a9.49,9.49,0,0,0,7.27.52l1.57-14.55-.32.18a9.34,9.34,0,0,1-8.52,0l-67.39-38.91c-2.06-1.18-2.32-3-.8-4.35A9.54,9.54,0,0,0,215.56,346.57Z" style="opacity: 0.15; transform-origin: 255.805px 368.79px;" class="animable" id="el3wmpq0tvgck"></path>
        </g>
        <path d="M271.75,314.12,339.15,353a8.86,8.86,0,0,0,5,1l.75-.08.16,0,.44-.09h.06c.22-.05.44-.1.67-.17a7,7,0,0,0,1.45-.62l3.47-2a12,12,0,0,0,5.12-7.3l10-55.17a6.23,6.23,0,0,0,.09-1.06c0-.14,0-.28,0-.42a7.52,7.52,0,0,0-.46-2.09,7.61,7.61,0,0,0-2.26-3.22l-.29-.22a3.46,3.46,0,0,0-.45-.29L295.5,242.35a9.41,9.41,0,0,0-8.52,0l-3.47,2a9.13,9.13,0,0,0-2,1.67,3.92,3.92,0,0,0-.34.37,12,12,0,0,0-1.25,1.68c-.09.12-.16.25-.24.38l-.19.35c-.1.17-.18.33-.26.5s-.16.33-.23.5-.12.28-.17.43a1.18,1.18,0,0,0-.07.2c-.05.12-.08.25-.12.37s-.1.33-.13.49-.06.24-.09.36l-10,55.18A7.49,7.49,0,0,0,271.75,314.12Z" style="fill: #37474F; transform-origin: 317.355px 297.685px;" id="el43a0erxhi2a" class="animable"></path>
        <g id="elao19ksk59om">
          <path d="M271.75,314.12,339.15,353a8.86,8.86,0,0,0,5,1l.75-.08.16,0,.44-.09h.06c.22-.05.44-.1.67-.17a7,7,0,0,0,1.45-.62l3.47-2a12,12,0,0,0,5.12-7.3l10-55.17a6.23,6.23,0,0,0,.09-1.06c0-.14,0-.28,0-.42a7.52,7.52,0,0,0-.46-2.09,7.61,7.61,0,0,0-2.26-3.22l-.29-.22a3.46,3.46,0,0,0-.45-.29L295.5,242.35a9.41,9.41,0,0,0-8.52,0l-3.47,2a9.13,9.13,0,0,0-2,1.67,3.92,3.92,0,0,0-.34.37,12,12,0,0,0-1.25,1.68c-.09.12-.16.25-.24.38l-.19.35c-.1.17-.18.33-.26.5s-.16.33-.23.5-.12.28-.17.43a1.18,1.18,0,0,0-.07.2c-.05.12-.08.25-.12.37s-.1.33-.13.49-.06.24-.09.36l-10,55.18A7.49,7.49,0,0,0,271.75,314.12Z" style="fill: rgb(255, 255, 255); opacity: 0.7; transform-origin: 317.355px 297.685px;" class="animable" id="elddvdujsbyda"></path>
        </g>
        <g id="ele6s1uy4nsv5">
          <path d="M354.29,295.48l-10,55.17a3.24,3.24,0,0,1-5.13,2.39l-67.4-38.91a7.51,7.51,0,0,1-3.39-7.3l10-55.18a3.23,3.23,0,0,1,5.13-2.38l67.39,38.91A7.49,7.49,0,0,1,354.29,295.48Z" style="fill: #37474F; opacity: 0.2; transform-origin: 311.33px 301.15px;" class="animable" id="el5ccvg7qrxed"></path>
        </g>
        <g id="el66a3bf63tbx">
          <path d="M340.89,353.72a10,10,0,0,0,3.25.3l.75-.08c.2,0,.4-.06.6-.11h.06c.22-.05.44-.1.67-.17a7,7,0,0,0,1.45-.62l3.47-2a12,12,0,0,0,5.12-7.3l10-55.17a6.23,6.23,0,0,0,.09-1.06c0-.14,0-.28,0-.42a7.52,7.52,0,0,0-.46-2.09l-12,6.83a6.74,6.74,0,0,1,.43,3.66l-10,55.17c-.35,2-1.72,3.1-3.37,3C340.9,353.66,340.89,353.69,340.89,353.72Z" style="fill: #37474F; opacity: 0.3; transform-origin: 353.62px 319.523px;" class="animable" id="eldteca3j74ks"></path>
        </g>
        <path d="M385.82,383.26,369.88,310.8l-7.77,6.64L383,384.37a1.6,1.6,0,0,0,.64.72h0A1.53,1.53,0,0,0,385.82,383.26Z" style="fill: #37474F; transform-origin: 374.004px 348.037px;" id="elbmickjlf7e5" class="animable"></path>
        <path d="M363.89,301.18,302.34,350a20.24,20.24,0,0,0-7.6,14.2l-7.3,75.61a1.24,1.24,0,0,0,.62,1.18h0a1.23,1.23,0,0,0,1.84-.87L302,369.05a20.29,20.29,0,0,1,9.17-13.79l52.5-33.2a17,17,0,0,0,1.48-27.65Z" style="fill: rgb(69, 90, 100); transform-origin: 329.497px 367.785px;" id="el96kxv4b167a" class="animable"></path>
        <path d="M371.67,348.11h0c1.82,4.21.7,9.11-3.27,11.41l-62.82,36.27a4.92,4.92,0,0,1-7.3-5.06h0l-4.82,28.47h0a17.32,17.32,0,0,1,8.29-12L371.6,366.9a7.17,7.17,0,0,1,10.16,3.36h0Z" style="fill: #37474F; transform-origin: 337.61px 383.655px;" id="elesn22kw4xwf" class="animable"></path>
      </g>
    </g>
  </g>
  <g id="freepik--Plant--inject-2" class="animable" style="transform-origin: 384.724px 385.112px;">
    <g id="freepik--Pot--inject-2" class="animable" style="transform-origin: 384.724px 385.112px;">
      <path d="M368.86,424.18c-8.43-8.61-13.38-34.27-5.16-41.1h41.85c8.22,6.82,3.27,32.48-5.15,41.09l-.23.24-.29.28c-.24.23-.49.46-.77.68l-.2.16-.63.48c-.36.25-.73.49-1.09.69-6.94,4-18.19,4-25.12,0h0a10.13,10.13,0,0,1-1.1-.7c-.21-.14-.4-.3-.59-.45l-.25-.19c-.26-.22-.51-.43-.74-.66l-.33-.32Z" style="fill: #37474F; transform-origin: 384.625px 406.39px;" id="elukb3xv5gump" class="animable"></path>
      <g id="elbxm2r8h0zq4">
        <g style="opacity: 0.5; transform-origin: 384.625px 406.39px;" class="animable" id="elafkvltz0ukf">
          <path d="M368.86,424.18c-8.43-8.61-13.38-34.27-5.16-41.1h41.85c8.22,6.82,3.27,32.48-5.15,41.09l-.23.24-.29.28c-.24.23-.49.46-.77.68l-.2.16-.63.48c-.36.25-.73.49-1.09.69-6.94,4-18.19,4-25.12,0h0a10.13,10.13,0,0,1-1.1-.7c-.21-.14-.4-.3-.59-.45l-.25-.19c-.26-.22-.51-.43-.74-.66l-.33-.32Z" style="fill: rgb(255, 255, 255); transform-origin: 384.625px 406.39px;" id="elj811ynyyagf" class="animable"></path>
        </g>
      </g>
      <path d="M401.92,380.33c9.54,5.52,9.54,14.45,0,20s-25,5.51-34.58,0-9.55-14.45,0-20S392.37,374.82,401.92,380.33Z" style="fill: #37474F; transform-origin: 384.621px 390.33px;" id="elfb1fep9l8ce" class="animable"></path>
      <g id="elgz0guvgi61">
        <g style="opacity: 0.7; transform-origin: 384.621px 390.33px;" class="animable" id="elnr3202zsij8">
          <path d="M401.92,380.33c9.54,5.52,9.54,14.45,0,20s-25,5.51-34.58,0-9.55-14.45,0-20S392.37,374.82,401.92,380.33Z" style="fill: rgb(255, 255, 255); transform-origin: 384.621px 390.33px;" id="elbhc81lwcyg" class="animable"></path>
        </g>
      </g>
      <path d="M397.32,383c7,4,7,10.62,0,14.66s-18.38,4.05-25.39,0-7-10.61,0-14.66S390.31,378.94,397.32,383Z" style="fill: #37474F; transform-origin: 384.623px 390.326px;" id="el461uz4vle81" class="animable"></path>
      <g id="elxzbzxg65tr">
        <g style="opacity: 0.2; transform-origin: 384.623px 390.326px;" class="animable" id="el7rvjgwua8nu">
          <path d="M397.32,383c7,4,7,10.62,0,14.66s-18.38,4.05-25.39,0-7-10.61,0-14.66S390.31,378.94,397.32,383Z" style="fill: rgb(255, 255, 255); transform-origin: 384.623px 390.326px;" id="elw5owfr46dbo" class="animable"></path>
        </g>
      </g>
      <path d="M371.93,389.94c7-4.05,18.38-4.05,25.39,0a11.67,11.67,0,0,1,4.2,3.85,11.49,11.49,0,0,1-4.2,3.85c-7,4.05-18.38,4.05-25.39,0a11.58,11.58,0,0,1-4.2-3.85A11.75,11.75,0,0,1,371.93,389.94Z" style="fill: rgb(245, 245, 245); transform-origin: 384.625px 393.79px;" id="elv9d2c0hpswq" class="animable"></path>
      <g id="freepik--Plants--inject-2" class="animable" style="transform-origin: 384.724px 369.794px;">
        <path d="M379.74,374.17a10.9,10.9,0,0,1-1-2.83c-.43-2.36.16-5.06,2.07-6.51.75-.58,1.74-1,2.07-1.9a3.05,3.05,0,0,0,0-1.56c-.35-2-1-4.08-.47-6.05a6.78,6.78,0,0,1,3.75-4,20.52,20.52,0,0,1,5.47-1.43,8.67,8.67,0,0,0,2.89-.83c1.08-.6,1.42-1.67,2.09-2.61a18.28,18.28,0,0,1,2.66-2.83c2-1.77,4.44-3.21,7.16-3.09,5.69.25,5.53,5.15,3.89,8.86s-2.07,4.92,1.48,8.79,3.56,8.63-.68,11.3-7,3-5.32,8.17c1.5,4.58,2.43,8.5-1.81,13.41-2.75,3.17-6.49,5.43-11.18,5.24a19.15,19.15,0,0,1-5.49-1.28c-1.29-.64-.42-1.65-.85-2.92-.94-2.74-1.88-5.47-2.81-8.21a60.94,60.94,0,0,0-2.24-6.47C380.9,376.27,380.27,375.24,379.74,374.17Z" style="fill: #37474F; transform-origin: 396.497px 368.417px;" id="elecjoq21uogo" class="animable"></path>
        <g id="elrjoj9k9m2jm">
          <g style="opacity: 0.25; transform-origin: 396.497px 368.417px;" class="animable" id="eloo0xovfl0ce">
            <path d="M379.74,374.17a10.9,10.9,0,0,1-1-2.83c-.43-2.36.16-5.06,2.07-6.51.75-.58,1.74-1,2.07-1.9a3.05,3.05,0,0,0,0-1.56c-.35-2-1-4.08-.47-6.05a6.78,6.78,0,0,1,3.75-4,20.52,20.52,0,0,1,5.47-1.43,8.67,8.67,0,0,0,2.89-.83c1.08-.6,1.42-1.67,2.09-2.61a18.28,18.28,0,0,1,2.66-2.83c2-1.77,4.44-3.21,7.16-3.09,5.69.25,5.53,5.15,3.89,8.86s-2.07,4.92,1.48,8.79,3.56,8.63-.68,11.3-7,3-5.32,8.17c1.5,4.58,2.43,8.5-1.81,13.41-2.75,3.17-6.49,5.43-11.18,5.24a19.15,19.15,0,0,1-5.49-1.28c-1.29-.64-.42-1.65-.85-2.92-.94-2.74-1.88-5.47-2.81-8.21a60.94,60.94,0,0,0-2.24-6.47C380.9,376.27,380.27,375.24,379.74,374.17Z" id="el0le82c3vqx8e" class="animable" style="transform-origin: 396.497px 368.417px;"></path>
          </g>
        </g>
        <path d="M387.48,395a.44.44,0,0,0,.28-.41c-.24-28.11,15.25-44.9,15.41-45.06a.43.43,0,0,0,0-.6.43.43,0,0,0-.6,0c-.16.17-15.88,17.19-15.64,45.66a.42.42,0,0,0,.42.42Z" style="fill: rgb(255, 255, 255); transform-origin: 395.11px 371.909px;" id="eloj8ja9p8yza" class="animable"></path>
        <path d="M392,368.83l.08-.05c5.05-3.17,14-5.54,14.13-5.56a.42.42,0,0,0-.21-.82c-.37.1-9.21,2.42-14.36,5.66a.42.42,0,0,0-.13.59A.42.42,0,0,0,392,368.83Z" style="fill: rgb(255, 255, 255); transform-origin: 398.983px 365.619px;" id="el7tn9evyvx37" class="animable"></path>
        <path d="M393.55,365h0a.43.43,0,0,0,.23-.55,32.83,32.83,0,0,0-4.65-7.82.42.42,0,0,0-.59,0,.43.43,0,0,0-.05.6,31.89,31.89,0,0,1,4.51,7.59A.43.43,0,0,0,393.55,365Z" style="fill: rgb(255, 255, 255); transform-origin: 391.1px 360.773px;" id="elz066wl2d51e" class="animable"></path>
        <path d="M383.53,398a23.71,23.71,0,0,1-12.35.46c-7.08-1.54-11.41-8.15-11.41-8.15s7.66-3.07,12.13-3.37a39.51,39.51,0,0,0-13.42.29s-4.1-1.53-3.32-8.45c0,0,3.86-2.84,12.74-1.73A28.31,28.31,0,0,0,355.65,373c-.62,0,.21-9,1-13s2.31-5,5.5-4.69,12.53,4.14,13.73,6.45,0,8.22,0,8.22a13.52,13.52,0,0,0,2.6-7.73,21,21,0,0,1,5.45,3,12.68,12.68,0,0,1,3.4,4.25c-.45,3.17-1.94,8-4,10.69a14.47,14.47,0,0,0,5.78-8.63,19.54,19.54,0,0,1,3.72,11C392.77,389.54,389.62,394.8,383.53,398Z" style="fill: #37474F; transform-origin: 373.946px 377.161px;" id="elj0fdawkjneg" class="animable"></path>
        <g id="eleunb4kba2v">
          <path d="M383.53,398a23.71,23.71,0,0,1-12.35.46c-7.08-1.54-11.41-8.15-11.41-8.15s7.66-3.07,12.13-3.37a39.51,39.51,0,0,0-13.42.29s-4.1-1.53-3.32-8.45c0,0,3.86-2.84,12.74-1.73A28.31,28.31,0,0,0,355.65,373c-.62,0,.21-9,1-13s2.31-5,5.5-4.69,12.53,4.14,13.73,6.45,0,8.22,0,8.22a13.52,13.52,0,0,0,2.6-7.73,21,21,0,0,1,5.45,3,12.68,12.68,0,0,1,3.4,4.25c-.45,3.17-1.94,8-4,10.69a14.47,14.47,0,0,0,5.78-8.63,19.54,19.54,0,0,1,3.72,11C392.77,389.54,389.62,394.8,383.53,398Z" style="opacity: 0.1; transform-origin: 373.946px 377.161px;" class="animable" id="elxep1b0mj1im"></path>
        </g>
        <path d="M384.46,397.39a.4.4,0,0,1-.25-.35c-1.07-13.41-16.08-34.37-22.72-38.58a.41.41,0,0,1,.43-.69c6.74,4.28,22,25.58,23.09,39.21a.41.41,0,0,1-.37.44A.57.57,0,0,1,384.46,397.39Z" style="fill: rgb(255, 255, 255); transform-origin: 373.176px 377.577px;" id="elka6yud7uoyp" class="animable"></path>
      </g>
    </g>
  </g>
  <defs>
    <filter id="active" height="200%">
      <feMorphology in="SourceAlpha" result="DILATED" operator="dilate" radius="2"></feMorphology>
      <feFlood flood-color="#32DFEC" flood-opacity="1" result="PINK"></feFlood>
      <feComposite in="PINK" in2="DILATED" operator="in" result="OUTLINE"></feComposite>
      <feMerge>
        <feMergeNode in="OUTLINE"></feMergeNode>
        <feMergeNode in="SourceGraphic"></feMergeNode>
      </feMerge>
    </filter>
    <filter id="hover" height="200%">
      <feMorphology in="SourceAlpha" result="DILATED" operator="dilate" radius="2"></feMorphology>
      <feFlood flood-color="#ff0000" flood-opacity="0.5" result="PINK"></feFlood>
      <feComposite in="PINK" in2="DILATED" operator="in" result="OUTLINE"></feComposite>
      <feMerge>
        <feMergeNode in="OUTLINE"></feMergeNode>
        <feMergeNode in="SourceGraphic"></feMergeNode>
      </feMerge>
      <feColorMatrix type="matrix" values="0   0   0   0   0                0   1   0   0   0                0   0   0   0   0                0   0   0   1   0 "></feColorMatrix>
    </filter>
  </defs>
</svg>
